<?xml version="1.0" encoding="utf-8"?>
<!-- Generator: Adobe Illustrator 16.0.3, SVG Export Plug-In . SVG Version: 6.00 Build 0)  -->
<!DOCTYPE svg PUBLIC "-//W3C//DTD SVG 1.1//EN" "http://www.w3.org/Graphics/SVG/1.1/DTD/svg11.dtd">
<svg version="1.1" xmlns="http://www.w3.org/2000/svg" xmlns:xlink="http://www.w3.org/1999/xlink" x="0px" y="0px" width="160px"
	 height="160px" viewBox="0 0 160 160" enable-background="new 0 0 160 160" xml:space="preserve">
<g id="Layer_2">
</g>
<g id="Layer_1">
	<path fill-rule="evenodd" clip-rule="evenodd" fill="#2E3192" d="M79.947,105.032c-15.485-0.153-27.005-12.526-26.432-27.386
		c0.555-14.369,12.512-25.036,25.746-25.117c16.253-0.1,27.135,13.029,26.697,27.552C105.562,93.265,92.905,105.413,79.947,105.032z
		"/>
	<path fill-rule="evenodd" clip-rule="evenodd" fill="#2E3192" d="M124.424,17.799c-0.877-0.114-1.753-0.23-2.63-0.339
		c-9.795-1.216-19.343,0.081-28.747,2.835c-9.345,2.736-18.179,6.633-26.677,11.394c-16.55,9.271-30.916,21.121-42.822,35.889
		C16.692,76.08,11.407,85.479,8.599,96.1c-1.718,6.493-2.662,12.439-0.949,22.378c-0.417-1.377-0.918-2.734-1.235-4.135
		c-1.996-8.821-0.947-17.478,1.665-25.99c3.196-10.42,8.69-19.641,15.23-28.271c6.907-9.113,15.264-16.732,24.588-23.272
		c15.925-11.167,33.417-18.527,52.785-21.083c7.405-0.977,14.8-0.845,22.086,1.049c0.601,0.156,1.173,0.42,1.759,0.634
		C124.493,17.539,124.458,17.668,124.424,17.799z"/>
	<path fill-rule="evenodd" clip-rule="evenodd" fill="#2E3192" d="M17.601,132.905c2.417,1.329,4.763,2.813,7.264,3.959
		c7.802,3.577,16.054,4.51,24.547,3.944c13.695-0.912,26.2-5.547,38.199-11.921c12.586-6.687,23.755-15.231,33.62-25.463
		c3.445-3.573,6.48-7.54,9.699-11.332c0.354-0.414,0.678-0.853,0.986-1.243c2.229,1.441,4.346,2.809,6.755,4.364
		c-2.474,2.868-4.853,5.824-7.438,8.586c-13.198,14.112-28.706,24.928-46.598,32.256c-7.919,3.244-16.146,5.5-24.623,6.652
		c-10.971,1.491-21.842,1.12-32.167-3.35c-3.315-1.436-6.278-3.683-9.397-5.568c-0.36-0.218-0.686-0.492-1.028-0.741
		C17.48,133.001,17.541,132.953,17.601,132.905z"/>
	<path fill-rule="evenodd" clip-rule="evenodd" fill="#2E3192" d="M143.918,92.965c-7.187,0.201-13.731-6.231-13.832-13.598
		c-0.107-7.846,5.968-14.005,14.019-14.213c7.48-0.193,13.737,5.966,13.978,13.762C158.317,86.563,152.094,92.736,143.918,92.965z"
		/>
	<path fill-rule="evenodd" clip-rule="evenodd" fill="#2E3192" d="M106.999,24.784c-1.663,0.313-3.323,0.625-4.984,0.939
		c-9.071,1.707-17.479,5.187-25.54,9.584c-5.994,3.269-11.638,7.075-16.859,11.463c-9.634,8.097-17.725,17.465-23.003,29.011
		c-2.979,6.515-4.973,13.317-4.993,20.564c-0.028,10.029,3.785,18.115,12.437,23.485c4.518,2.804,9.604,4.051,14.935,4.229
		c9.377,0.319,18.073-2.155,26.356-6.358c0.541-0.274,1.091-0.537,1.646-0.784c0.168-0.074,0.367-0.081,0.59-0.021
		c-4.405,2.845-9.085,5.144-14.06,6.767c-7.69,2.509-15.552,3.604-23.563,1.813c-11.765-2.627-19.684-10.748-21.829-22.504
		c-1.907-10.451,0.841-20.142,5.651-29.349c6.108-11.692,14.798-21.155,25.26-29.095c8.061-6.117,16.778-11.04,26.187-14.741
		c6.496-2.555,13.251-4.14,20.125-5.26c0.521-0.085,1.058-0.088,1.587-0.129C106.96,24.527,106.979,24.656,106.999,24.784z"/>
	<path fill-rule="evenodd" clip-rule="evenodd" fill="#2E3192" d="M75.686,40.269c4.82-3.159,10.075-5.384,15.625-6.919
		c7.109-1.967,14.323-2.725,21.51-0.758c10.378,2.839,16.348,9.903,18.457,20.336c0.959,4.744,0.702,9.509-0.034,14.251
		c-0.136,0.87-0.525,1.766-1.017,2.502c-1.798,2.69-2.394,5.698-3.041,8.82c-0.612,2.956-1.942,5.864-3.445,8.513
		c-4.059,7.156-9.296,13.426-15.157,19.193c-8.15,8.019-17.42,14.409-27.601,19.579c-6.234,3.166-12.709,5.599-19.454,7.367
		c-0.333,0.088-0.676,0.14-1.113-0.045c0.409-0.147,0.814-0.307,1.229-0.438c21.649-6.897,39.199-19.532,52.729-37.757
		c6.125-8.252,10.67-17.289,12.659-27.422c1.15-5.861,1.348-11.779-0.406-17.645c-2.616-8.746-8.791-13.512-17.318-15.579
		c-7.747-1.877-15.359-0.748-22.807,1.643c-3.176,1.02-6.222,2.446-9.323,3.694C76.673,39.809,76.183,40.047,75.686,40.269z"/>
	<path fill-rule="evenodd" clip-rule="evenodd" fill="#2E3192" d="M153.696,65.249c-2.191-0.977-4.344-1.937-6.717-2.996
		c0.06-0.33,0.138-0.91,0.271-1.477c1.629-6.892,2.332-13.821,0.533-20.783c-2.531-9.802-8.755-16.486-17.802-20.717
		c-0.359-0.168-0.722-0.33-1.008-0.751c0.564,0.153,1.138,0.282,1.694,0.46c12.625,4.058,20.104,12.794,23.11,25.539
		C155.403,51.405,155.089,58.301,153.696,65.249z"/>
</g>
</svg>
